<?xml version="1.0" encoding="UTF-8"?>
<svg id="_레이어_1" xmlns="http://www.w3.org/2000/svg" version="1.1" viewBox="0 0 478 557.13">
  <!-- Generator: Adobe Illustrator 29.5.1, SVG Export Plug-In . SVG Version: 2.1.0 Build 141)  -->
  <defs>
    <style>
      .st0 {
        fill: #fff;
      }
    </style>
  </defs>
  <g>
    <path class="st0" d="M289.87,0H23.19C10.38,0,0,124.72,0,278.56s10.38,278.56,23.19,278.56h103.5c4.47,0,7.68-4.33,6.29-8.58-8.17-24.97-14.61-102.07-16.72-200.08,9.98,5.64,27.87,13.64,56.93,20.36,14.44,3.62,28.96,6.04,43.55,7.61.64.08,1.25.17,1.9.25l-.02-.06c15.52,1.6,31.13,2.28,46.83,2.28,128.72,0,212.55-57.43,212.55-196.05S400.77,0,289.87,0ZM265.45,266.02c-36.91,0-70.93-2.93-102.11-18.01-13.51-6.78-32.8-18.75-47.13-36.9.75-36.03,2.07-69.29,3.86-98.24h169.8c40.27,0,72.61,9.9,72.61,69.97s-38.29,83.17-97.04,83.17h.01Z"/>
    <path class="st0" d="M91.19,67.51v179.14s170.44,121.01,291.44,0c0,0,23.7-46.27-10.69-179.14,0,0-280.75,0-280.75,0Z"/>
  </g>
  <g>
    <g>
      <g>
        <path d="M256.1,259.07c-45.64,0-85.15-9.12-105.85-24.89-2.68-2.04-3.2-5.87-1.16-8.55,2.04-2.68,5.87-3.2,8.55-1.16,21.05,16.03,67.03,24.62,117.13,21.87,50.1-2.75,94.87-16.3,114.04-34.54,2.44-2.32,6.31-2.23,8.63.22,2.32,2.44,2.23,6.3-.22,8.63-21.47,20.43-68.14,34.95-121.78,37.89-6.54.36-13.01.53-19.35.53h.01Z"/>
        <path d="M395.57,268.91c-.61,0-1.24-.09-1.86-.29-20.77-6.63-37.14-15.25-47.32-24.94-2.44-2.32-2.54-6.19-.22-8.63s6.18-2.54,8.63-.22c8.86,8.42,23.6,16.08,42.63,22.15,3.21,1.03,4.98,4.46,3.96,7.67-.83,2.59-3.23,4.25-5.81,4.25h-.01Z"/>
      </g>
      <path d="M154.95,275.29c-4.38,0-8.15-3.29-8.65-7.74-1.25-11.16-2.08-19.5-2.08-33.26,0-9.18.36-23.43,1.15-33,.4-4.8,4.59-8.38,9.4-7.97,4.8.4,8.37,4.61,7.97,9.4-.72,8.68-1.09,22.45-1.09,31.57,0,11.89.58,18.97,1.97,31.31.54,4.78-2.9,9.1-7.69,9.64-.33.04-.66.06-.98.06h0Z"/>
    </g>
    <g>
      <g>
        <path d="M206.48,182.62c-40.02,0-71.36-19.76-71.36-44.98s31.34-44.98,71.36-44.98,71.36,19.76,71.36,44.98-31.34,44.98-71.36,44.98ZM206.48,104.86c-32.07,0-59.15,15.01-59.15,32.78s27.09,32.78,59.15,32.78,59.15-15.01,59.15-32.78-27.09-32.78-59.15-32.78h0Z"/>
        <path d="M208.55,146.27c-1.73,0-3.46-.02-5.2-.06-22.61-.56-44.08-4.58-62.08-11.65-3.14-1.23-4.68-4.77-3.45-7.91s4.77-4.68,7.91-3.45c16.69,6.55,36.72,10.29,57.93,10.81,23.28.58,45.88-2.92,63.59-9.85,3.14-1.23,6.68.32,7.91,3.46s-.32,6.68-3.46,7.91c-17.84,6.97-40.09,10.74-63.13,10.74h-.02Z"/>
      </g>
      <path d="M217.17,134.84h54.26c-1.32,20.75-12.96,36.99-27.13,36.99s-25.81-16.23-27.13-36.99h0Z"/>
    </g>
    <g>
      <g>
        <path d="M337,182.62c-40.02,0-71.36-19.76-71.36-44.98s31.34-44.98,71.36-44.98,71.36,19.76,71.36,44.98-31.34,44.98-71.36,44.98ZM337,104.86c-32.07,0-59.15,15.01-59.15,32.78s27.09,32.78,59.15,32.78,59.15-15.01,59.15-32.78-27.09-32.78-59.15-32.78Z"/>
        <path d="M339.07,146.27c-1.73,0-3.46-.02-5.2-.06-22.61-.56-44.08-4.58-62.09-11.65-3.14-1.23-4.68-4.77-3.45-7.91,1.23-3.14,4.78-4.68,7.91-3.45,16.69,6.55,36.72,10.29,57.92,10.81,23.28.58,45.88-2.92,63.59-9.85,3.14-1.23,6.68.32,7.91,3.46s-.32,6.68-3.46,7.91c-17.84,6.97-40.09,10.74-63.13,10.74h0Z"/>
      </g>
      <path d="M347.69,134.84h54.26c-1.32,20.75-12.96,36.99-27.13,36.99s-25.81-16.23-27.13-36.99Z"/>
    </g>
  </g>
</svg>