<?xml version="1.0" encoding="UTF-8"?>
<svg id="_레이어_1" xmlns="http://www.w3.org/2000/svg" version="1.1" viewBox="0 0 478 557.13">
  <!-- Generator: Adobe Illustrator 29.5.1, SVG Export Plug-In . SVG Version: 2.1.0 Build 141)  -->
  <defs>
    <style>
      .st0 {
        fill: #fff;
        stroke: #000;
        stroke-linejoin: round;
        stroke-width: 10px;
      }
    </style>
  </defs>
  <path class="st0" d="M24.38,552.12c-1.73-2.56-7.93-16.25-13.2-84.42-3.98-51.54-6.18-118.71-6.18-189.14s2.19-137.6,6.18-189.14C16.45,21.25,22.65,7.56,24.38,5h265.49c59.02,0,102.33,12.51,132.4,38.24,16.34,13.99,28.88,32.27,37.25,54.33,8.94,23.56,13.47,52.25,13.47,85.28,0,65.09-18.93,114.28-56.25,146.21-34.79,29.75-85.69,44.84-151.29,44.84-16.46,0-31.61-.74-46.32-2.25-.17-.02-.34-.03-.51-.03-.04,0-.07,0-.11,0-.07,0-1.15-.15-1.15-.15-15.41-1.66-29.43-4.11-42.96-7.5-28.75-6.65-46.14-14.47-55.69-19.86-.76-.43-1.61-.65-2.46-.65s-1.78.24-2.57.71c-1.54.92-2.47,2.6-2.43,4.4,2.13,98.82,8.63,176.04,16.97,201.53.2.6,0,1.07-.22,1.36-.18.25-.59.67-1.32.67H24.38Z"/>
  <g>
    <g>
      <polygon points="256.1 259.07 256.09 259.07 256.1 259.07 256.1 259.07"/>
      <polygon points="256.09 259.07 256.09 259.07 256.09 259.07 256.09 259.07"/>
      <path d="M397.43,256.98c-14.18-4.52-25.97-9.93-34.72-15.87,14.49-5.75,26.33-12.68,34.51-20.46,2.45-2.33,2.54-6.19.22-8.63-2.32-2.45-6.19-2.54-8.63-.22-19.17,18.24-63.94,31.79-114.04,34.54-47.09,2.58-90.53-4.85-113.06-19.06.13-8.25.48-17.9,1.03-24.56.4-4.79-3.17-9-7.97-9.4-4.81-.41-9,3.17-9.4,7.97-.79,9.57-1.15,23.82-1.15,33,0,13.76.83,22.1,2.08,33.26.5,4.45,4.27,7.74,8.65,7.74h0c.32.01.65,0,.98-.05,4.79-.54,8.23-4.86,7.69-9.64-1.09-9.72-1.69-16.18-1.89-24.3,22.17,11.36,56.11,17.77,94.36,17.77,6.34,0,12.81-.17,19.35-.53,27.06-1.48,52.34-5.92,73.52-12.57,10.27,8.76,25.64,16.55,44.75,22.65.62.2,1.25.29,1.86.29h0s.01-.01.01-.01c2.58,0,4.98-1.66,5.81-4.25,1.02-3.21-.75-6.64-3.96-7.67Z"/>
    </g>
    <path d="M337,92.66c-29.5,0-54.27,10.75-65.26,26.49-10.99-15.75-35.76-26.49-65.26-26.49-40.02,0-71.36,19.76-71.36,44.98s31.34,44.98,71.36,44.98c29.5,0,54.27-10.75,65.26-26.49,10.99,15.75,35.76,26.49,65.26,26.49,40.02,0,71.36-19.76,71.36-44.98s-31.34-44.98-71.36-44.98ZM337,104.86c24.8,0,46.62,8.99,55.23,21.28-16.77,5.6-37.14,8.39-58.07,7.87-18.69-.46-36.47-3.42-51.85-8.61,8.95-11.91,30.38-20.54,54.7-20.54ZM206.48,104.86c24.81,0,46.63,8.99,55.23,21.29-16.77,5.6-37.13,8.38-58.05,7.86-18.7-.46-36.49-3.42-51.87-8.61,8.95-11.91,30.38-20.54,54.69-20.54ZM147.33,137.64c0-.29.03-.57.04-.85,16.67,5.68,35.87,8.93,55.98,9.42,1.74.04,3.47.06,5.2.06h.02c3.49,0,6.95-.1,10.39-.27,2.42,9.14,6.96,16.65,12.72,21.17-7.69,2.07-16.25,3.24-25.2,3.24-32.06,0-59.15-15.01-59.15-32.78ZM277.85,137.64c0-.29.03-.57.04-.85,16.67,5.68,35.87,8.92,55.98,9.42,1.74.04,3.47.06,5.2.06,3.49,0,6.97-.1,10.41-.27,2.42,9.14,6.96,16.65,12.72,21.18-7.69,2.07-16.25,3.24-25.2,3.24-32.06,0-59.15-15.01-59.15-32.78Z"/>
  </g>
</svg>